<svg fill="currentColor" xmlns="http://www.w3.org/2000/svg" viewBox="0 0 216 216">
  <path d="M138.91,154.66c-3.77.17-7.16-1.2-9.78-3.75-2.3-2.18-3.74-4.93-4.09-8.23-3.85,6.93-10.49,11.85-17.9,14.42-3.03,1.05-6.02,1.79-9.23,2.19l-27.89,3.44c-1.74.22-3.33.33-5.07.13-3.42-.39-6.58-1.89-8.88-4.49-1.74-1.97-2.89-4.48-3.21-7.16l-9.56-78.67c-.84-6.93,4.69-13.2,11.45-14.06l27.66-3.49c2.62-.33,5.13-.2,7.7.04,5.52.51,10.61,2.59,14.96,5.99,3.81,2.97,6.64,6.85,8.25,11.43s2.09,9.07,1.66,13.74c-.58,5.42-2.92,10.26-6.98,14.1,2.77.12,5.35.72,7.72,2.08,7.41,4.25,12.16,11.9,12.76,20.43.28,3.21.28,6.24-.14,9.54,2.59-3,6.09-4.56,9.98-4.6,3.66-.03,6.95,1.34,9.55,3.89s4.06,5.95,4.03,9.7c-.03,3.61-1.36,6.87-3.91,9.42s-5.52,3.88-9.08,3.91Z"/>
  <path d="M147.43,126.08c-3.72-.02-7.03-1.41-9.61-3.95-1.83-1.81-3.03-4.06-3.3-6.66-.17-1.68-.14-3.32.31-4.99l13.13-48.9c.36-1.33.86-2.46,1.55-3.59,2.41-3.98,6.74-5.24,11.27-4.9s8.51,2.78,10.7,6.72c1.47,2.65,1.62,5.68.84,8.58l-13.08,49.09c-.38,1.41-.98,2.61-1.73,3.8-2.22,3.5-5.89,4.83-10.08,4.8Z"/>
</svg>