<svg fill="currentColor" xmlns="http://www.w3.org/2000/svg" viewBox="0 0 216 216">
  <path d="M190.72,123.61l-.56-1.67-1.25-.04v1.74s-1.12-.02-1.12-.02v-4.72s2.66,0,2.66,0c.53,0,1.09.48,1.23.9.2.59-.04,1.21-.55,1.56l.78,2.23-1.2.02ZM190.24,120.95c.22,0,.5-.48.43-.67-.06-.16-.4-.46-.58-.46l-1.18-.02v1.2s1.33-.04,1.33-.04Z"/>
  <g>
    <g>
      <path d="M195.92,121.26c0,3.44-2.79,6.23-6.24,6.23s-6.24-2.79-6.24-6.23,2.79-6.23,6.24-6.23,6.24,2.79,6.24,6.23ZM194.35,121.27c0-2.53-2.06-4.59-4.59-4.59s-4.59,2.05-4.59,4.59,2.06,4.59,4.59,4.59,4.59-2.05,4.59-4.59Z"/>
      <path d="M181.82,128.64c.04,5.97-3.86,9.45-9.31,11.18-3.11.98-6.23,1.2-9.5,1.2-5.26,0-11.95-.78-15.61-4.62-2.24-2.35-2.61-5.89-.7-8.53.94-1.3,2.21-2.15,3.6-2.88-2.46-1.25-3.74-3.44-3.73-6.02.02-3.57,1.94-5.61,4.89-7.28-4.99-4.17-5.1-12.34-.62-16.89,4.38-4.45,11.89-5.09,17.68-3.45,1.55-3.79,4.97-6.94,9.03-6.84l2.97.07-.03,7.4c-2.76-.47-5.09-.06-6.68,2.2,4.77,4.05,5.15,12.01,1.05,16.6-4.33,4.85-12.25,5.44-18.33,3.72l-1.12,1.09c-.23.22-.29.99-.17,1.33.38,1.14,2.53,1.55,4.08,1.56l10.54.05c2.08,0,4.07.42,5.95,1.15,3.79,1.46,5.99,4.95,6.02,8.96ZM167.93,102.96c0-2.91-2.36-5.27-5.28-5.27s-5.28,2.36-5.28,5.27,2.36,5.27,5.28,5.27,5.28-2.36,5.28-5.27ZM172.29,129.61c-.25-1.87-2.78-2.65-4.91-2.66l-10.04-.05c-.76,0-1.07-.09-1.6.51-1.06,1.19-1.53,2.93-.44,4.29.67.83,1.74,1.39,2.82,1.65,4.88,1.19,14.78.93,14.16-3.74Z"/>
    </g>
    <path d="M126.01,99.12c-2.65-.23-4.89.89-6.14,3.14-.88,1.58-1.24,3.32-1.22,5.21v19.45s-10.28.01-10.28.01v-35.29s10.26.04,10.26.04l.02,3.88c2.87-4.13,7.17-5.47,12.14-4.89,7.08.83,10.51,6.93,10.7,13.8v22.46s-10.27,0-10.27,0v-21.46c-.09-3.44-1.62-6.03-5.21-6.34Z"/>
    <g>
      <path d="M35.42,128.04c-5-.23-9.25-2.69-11.99-6.72-2.44-3.59-3.37-7.7-3.36-12.04,0-4.66,1.14-9.19,4.03-12.86,2.6-3.41,6.32-5.42,10.57-5.83,4.49-.44,8.7,1.12,11.85,4.42v-18.04s10.11,0,10.11,0v49.94s-10.07.02-10.07.02l-.07-3.31c-2.87,3.07-6.77,4.62-11.09,4.42ZM46.55,108.95c-.09-5.22-2.36-9.79-7.86-9.86-3.27-.04-6.04,1.68-7.24,4.84s-1.27,7.06-.16,10.38,3.78,5.09,7.05,5.18c5.92.16,8.3-4.88,8.2-10.53Z"/>
      <path d="M64.48,126.93l-.19-2v-33.26s10.22-.02,10.22-.02l.09,5.48c2.45-4.86,6.28-6.57,11.53-5.73v9.6c-3.97-.66-7.79.21-9.99,3.65-.92,1.44-1.55,3.15-1.55,4.94l-.04,17.3-10.08.02Z"/>
    </g>
  </g>
  <g>
    <rect x="90.49" y="91.64" width="10.23" height="35.28"/>
    <ellipse cx="95.68" cy="81.29" rx="6.32" ry="6.31"/>
  </g>
</svg>