<svg fill="currentColor" xmlns="http://www.w3.org/2000/svg" viewBox="0 0 216 216">
  <path d="M158.9,49.3l-8.02,22.71h13.77s8.46-22.71,8.46-22.71h7.21s-.12.52-.12.52l-42.74,116.69-.19.19h-6.78s-.65-.1-.65-.1l32.32-87.75-37.77.02c-5.23.32-10.2,2.1-14.47,5.09-2.77,1.91-5.15,4.2-7.4,6.76-.11-.29-.07-.55-.04-.86.51-2.77,1.11-5.46,1.83-8.18.16-.6.4-1.1.85-1.54,1.94-1.84,4.09-3.39,6.45-4.68,6.98-3.79,14.43-3.76,22.18-3.74l9.45.02,8.43-22.45h7.21Z"/>
  <g>
    <path d="M86.2,49.3l-.16.52-31.92,86.85,42.38-.03c1.08-.03,2.03-.65,3.05-.88,6-2.04,10.44-6.06,13.33-11.66.03-.06.12-.2.15-.16l.14.23-1.22,7.52-.92,5.42c-6.37,6.38-14.99,6.91-23.56,6.77l-7.41-.2c-2.36-.06-4.69-.03-7.03.13l-8.66,22.89h-6.68s-.53-.05-.53-.05l8.49-22.87h-14.01s-8.74,22.67-8.74,22.67l-7.22-.02,43.02-117.11h7.51Z"/>
    <path d="M107.68,49.3l-23.82,65.63c2.25.07,4.46-.13,6.69-.52,2.4-.43,4.56-1.32,6.56-2.69,1.26-.87,2.43-1.76,3.51-2.85l3.69-3.71,3.79-3.7c1.72-1.54,3.56-2.77,5.63-3.78,2.74-1.34,5.56-2.29,8.56-2.93,6.61-1.4,13.4-1.27,20.09-.56l-26.8,72.48-6.42.03-.81-.05,24.27-65.63c.04-.1-.12-.35-.23-.35-3.88.07-7.35.47-11.09,1.54-5.34,1.53-8.57,4.38-12.35,8.21l-3.47,3.5c-1.3,1.31-2.67,2.43-4.18,3.49-1.76,1.23-3.59,2.16-5.64,2.81s-3.99,1.06-6.1,1.31c-3.78.45-7.55.51-11.35.15-1.4-.13-2.73-.29-4.14-.66l26.46-71.73h7.12Z"/>
  </g>
</svg>