<svg fill="currentColor" xmlns="http://www.w3.org/2000/svg" viewBox="0 0 216 216">
  <g>
    <path d="M150.48,120.05l-4.78.06-.05-30.34c0-1.6-1.16-2.78-2.4-3.11-.72-.19-1.43-.27-2.11-.29-.23,0-.28-.83-.04-.9l5.92.08c2.05.03,3.25,1.83,3.13,3.74-.04.63.14,1.28.33,1.92v28.84Z"/>
    <path d="M108.81,91.64c-.68.78-1.99.72-2.91.36-1.28-.5-2.15-2.77-1.74-3.65.33-.7.96-1.52,1.62-1.62,1.54-.24,2.67.34,3.3,1.6.5.99.63,2.29-.26,3.3Z"/>
    <path d="M116.45,111.8l-.27-1.53v-4.85s.35-1.95.35-1.95c.33-1.91,1.09-3.54,2.23-5.12,1.28-1.78,3.4-2.88,5.64-3.27,2.62-.46,5.74.21,8.25,1.52l-.02-6.37-.42-1.49-.6-1.41c-1.12-.7-2.22-1.04-3.67-.92l-.03-.98,6.03.11c.86.02,2.18.57,2.45,1.29l.72,1.9v31.32s-2.05.07-2.05.07c-.91.03-1.05-1.48-2.4-2.38-3.44,3.81-10.4,3.84-13.49.06l-1.31-1.89c-.81-1.17-1.16-2.7-1.41-4.11ZM126.57,118.53c1.45.07,3-.05,3.97-.99l2.12-2.07v-16.86c-2.87-1.4-5.22-2.4-8.1-.79l-1.48,1.55c-1.81,2.36-2.08,5.88-1.92,8.89l.18,3.6c.46,2.99,2.35,6.52,5.23,6.66Z"/>
    <g>
      <path d="M165.55,117.78c3.21,1.72,7.5.54,9.65-2.28l.87-1.14.89.96-.99,1.34c-1.72,2.31-4.35,3.79-7.3,3.79-1.26,0-2.62.06-3.76-.17-4.36-.89-7.27-4.86-7.91-9.22-.3-2.05-.26-4.38-.02-6.45.53-4.58,3.8-8.88,8.32-9.51,3.9-.54,7.65.51,10.11,3.76.41.54.86,1.44,1.02,2.08l.69,2.77.05,4.97h-15.55s.04,1.92.04,1.92l.31,1.58c.23,1.15.62,2.67,1.46,3.51l2.09,2.1ZM172.71,106.43l-.05-1.53-.29-1.96c-.12-.83-.43-1.76-.74-2.56-.84-2.14-3.01-3.56-5.2-3.06-3,.68-4.12,3.87-4.7,6.77-.15.73-.13,1.58-.08,2.34h11.06Z"/>
      <path d="M189.26,129.19c-.75.65-1.92,1.32-3,1.33l-7.11.09v-1.6s5.75-.11,5.75-.11c.86-.02,1.97-.62,2.57-1.11,1.16-.95,1.89-2.1,2.42-3.46l1.39-3.6-1.95-5.04-5.62-14.2c-.89-2.25-2.12-4.45-4.59-5.18l-1.6-.47.02-.85,5.81.11c1.49.03,2.83,1.12,3.71,2.3,1,1.33,1.5,3,2.13,4.59l4.66,11.6,1.09-2.81,5.72-15.25,2.69-.05-.87,2.06-1.74,4.65-1.79,4.79-6.52,17.43c-.7,1.88-1.65,3.46-3.17,4.77Z"/>
    </g>
  </g>
  <g>
    <path d="M102.23,119.17c.18.08.27.84.06.9l-1.47.41c-2.87.81-7.56-.97-9.61-2.98l-8.19-8.02-1.15-1.48-4.5-4.54-.17-.5c-.04-.11-.5.04-.55.09v17.03s-4.47,0-4.47,0l-.02-28.87-.35-2.16c-.33-2.03-2.2-2.73-4.39-2.67v-.97s6.11.04,6.11.04c1.59.4,3.01,1.33,3.03,3.17l.15,13.38,14.98-14.84c1.49-1.47,5.01-1.94,7.52-1.73l.03,1.19-1.71.3c-1.16.2-2.54.57-3.48,1.46l-4.69,4.46-7.88,7.96,6.09,6.19,2.12,2.4,6.61,6.5c1.66,1.63,3.78,2.63,5.94,3.29Z"/>
    <path d="M109.77,120.05l-4.78.07v-20.7c-1.07-4.35-4.21-2.05-4.78-3.33-.1-.23.32-.77.57-.76l3.96.18,2.42.18c1.05.08,2.01,1.25,2.2,2.19.1.51.18.79.39,1.22v20.96Z"/>
  </g>
  <path d="M16.83,119.81c-1.37-.02-2.84-.24-3.54-1.35-.36-.57-.79-1.52-.56-2.12.3-.82.7-1.84,1.28-2.41l3.96-3.93,2.01-1.78,11.98-11.8,9.57-9.34c.9-.88,2.13-1.46,3.4-1.61,1.2-.14,3.13.56,3.67,1.8l9.42,21.69,2.06,4.9c.53,1.27.62,2.55-.12,3.82-.49.84-1.51,1.79-2.82,2.01l-2.08.34-6.42.05-24.06-.14-7.73-.13ZM49.11,100.5l-1.41,1.92-4.5,6.87-3.03.06,3.38,5.28,2.3,3.54,3.19-.02-5.72-8.81,4.39-.03,3.2,4.87,2.6,3.99,3.14-.08c1.21-.03,2.35-1.33,2.13-2.54-.17-.92-.51-1.74-.88-2.59l-10.26-23.78c-.47-1.1-1.22-1.89-2.41-2.15l-1.94.79-2.07,1.93-2.28,2.04-11.36,11.31-1.93,1.66-9.66,9.62c-.72.71-1.56,1.42-1.71,2.48.06.5.95,1.31,1.55,1.31h25.46c-.02-.4-.19-.58-.4-.9l-5.22-7.91,3.15-.1,4.57-7.05c.32-.49.95-1.47,1.53-1.63l4.19-.07Z"/>
  <path d="M37.8,105.88l-2.23,3.43-4.41-.04,5.15-7.93c.29-.44.73-.81,1.25-.81h4s-1.05,1.21-1.05,1.21l-2.72,4.14Z"/>
</svg>