<svg fill="currentColor" xmlns="http://www.w3.org/2000/svg" viewBox="0 0 216 216">
  <path d="M3.71,104.58v-2.05s.07-1.67.07-1.67l.22-2.38c.04-.4.12-.76.14-1.17l4.49-4.04,2.76-2.47,1.93-1.71,3.55,3.48,2.14,2.07,5.28-5.52,4.34,4.01,4.29,3.96c.13.14.38.27.4.48.18,1.58.26,3.13.32,4.74.06,1.7.07,3.32-.02,5.01l-.09,1.78c-.11,2.32-.72,5.86-1.46,8.04-.21.62-.52,1.02-.94,1.51-1.73,2.02-3.66,3.76-5.86,5.25-1.01.68-1.89,1.43-3.07,1.95l4.31-9.32c.16-.35.47-.7.49-1.11l.02-16.31-2.77-2.65-2.39,2.61v15.82c0,.52.03.96.14,1.44l.76,3.41h-7.52s.2-1.5.2-1.5c.13-.95.41-1.84.42-2.83l.03-16.29-2.45-2.58-2.53,2.16c-.2.15-.41.28-.53.52l.05,6.41.07,9.89,3.47,7.82-7.42-5.25c-.53-1.08-.9-2.16-1.25-3.31-.32-1.06-.61-2.06-.82-3.15-.36-1.88-.6-3.74-.69-5.65l-.07-1.38Z"/>
  <path d="M70.88,111.74h-7.63s-.38,2.87-.38,2.87c-.07.55-.28,1.13-.16,1.71l1.77,8.54.35,1.94c-1.2-.59-2.14-1.36-3-2.3-1.74-1.89-3.14-4.06-4.31-6.35l2.91-20.53c.03-.22-.02-.5.18-.64l11.31-7.88c2.02,2.64,3.05,5.94,3.75,9.19.49,2.24.79,4.43,1.03,6.71.28,2.63.45,5.18.46,7.83l.03,5.31c-.05.4-.08.78-.02,1.18l-.2,3.6h-6.08s0-11.2,0-11.2ZM70.87,107.49l-.35-5.81c-.19-1.56-.57-3.03-1.25-4.51l-4.49,2.82-.97,7.5h7.04Z"/>
  <path d="M48.54,122.93v-11.2s-7.62,0-7.62,0l-.58,4.37,2.19,10.69c-2.47-1.16-4.47-3.81-5.88-6.08-.52-.84-1.03-1.63-1.46-2.53l.65-4.81.99-6.83,1.32-9.47,11.43-7.96c.86,1.11,1.55,2.32,2.08,3.63l1.38,4.23c.55,2.16.95,4.29,1.16,6.5l.35,3.71c.17,1.79.26,3.5.27,5.3l.02,5.6-.12,3.69-.1,1.17h-6.07ZM48.54,107.49l-.21-4.26c-.09-1.32-.24-2.58-.57-3.86-.2-.76-.43-1.46-.82-2.19l-4.45,2.81-.99,7.5h7.05Z"/>
  <path d="M92.47,117.24c2.08,1.24,4.44,1.44,6.76,1.16l8.12-1.4,5.33-.89-12.65,5.91c-1.19.56-2.44.73-3.75.78-1.71.07-3.31-.3-4.81-1.12l-7.03-3.35-4.57-2.18-.05-9.06-.03-9.01,7.29-4.45,6.52-4,6.46,2.34c1.5.54,2.96,1,4.54,1.23,1,.17,1.97.21,2.98.15l-.8,1.63-3.08,6.13-3.99-2.82c-.91-.64-1.85-1.12-2.89-1.47-1.31-.44-2.66-.45-3.97-.01-1.19.41-2.23,1.02-3.21,1.81l-3.01,2.42-.02,12.27,5.86,3.94Z"/>
  <path d="M114.86,116.04l-1.56-.04c.2-.13.43-.06.67-.11l5.81-1.13,3.67-.91,5.63-1.89c1.88-.74,3.62-1.66,5.34-2.69.64-.38,1.22-.76,1.8-1.28-1.4-1.08-2.82-1.93-4.38-2.69-2.68-1.29-5.4-2.28-8.26-3.08l-3.24-.82-5.85-1.16-1.11-.17-.18.03s-.06-.13-.03-.14l.88.03c6.97-.21,14.11.84,20.41,3.87l2.48,1.36c1.35.74,2.55,1.68,3.62,2.81-.89.87-1.75,1.63-2.8,2.22l-4.16,2.33-3.62,1.39c-4.13,1.3-8.73,2.06-13.05,2.07h-2.07Z"/>
  <g>
    <path d="M135.21,131.23l-1.76-.07-1.12-.02c.05-.23.17-.12.31-.14,4.28-.54,8.46-1.29,12.7-2.1l6.27-1.34c4.92-1.05,9.72-2.34,14.52-3.82l5.89-1.93,6.35-2.36,8.21-3.53,9.03-4.75,4.26-2.74c.2-.13.35-.26.53-.47l-3.59-2.39c-3.76-2.31-7.65-4.33-11.68-6.15l-10.84-4.41-10.23-3.34-11.1-2.9-10.94-2.26-9.53-1.54c-.09.07-.1-.12,0-.08l8.03-.12,6.34.21,5.02.28,7.92.82c4.19.55,8.3,1.22,12.42,2.16l6.03,1.49,4.77,1.43c5.71,1.71,12.99,5.01,18.08,8.13l3.79,2.49,3.63,2.78,1.86,1.6,1.36,1.29.51.46s.08.1.03.15l-2.35,2.15-2.17,1.81-6.37,4.46c-2.53,1.65-5.21,3.01-7.95,4.29-4.4,2.06-8.96,3.64-13.59,5.05l-3.44.93c-9.32,2.5-20.5,3.93-30.12,4.34l-2.64.11h-8.44Z"/>
    <path d="M128.31,122.95l-1.51.05-1.26.05h-1.87s-1.66-.03-1.66-.03c.05-.26.25-.09.38-.12l8.46-1.65,5.92-1.46,6.77-2.01,6.04-2.15,2.56-1.06c2.39-.99,4.74-2,6.94-3.38l5.09-3.2-2.21-1.49-2.9-1.74-4.75-2.39-7.23-2.94-5.92-1.98-7.31-1.99-7.42-1.65-4.26-.76c-.08.07-.18-.01-.11-.08h1.65s5.01.09,5.01.09l1.56.07,7.1.6c3.36.42,6.62,1.02,9.91,1.79l5.37,1.56c1.66.48,3.22,1.03,4.78,1.78l5.52,2.65c1.57.75,2.93,1.73,4.35,2.72,1.6,1.11,3.05,2.3,4.45,3.72-1.68,1.81-4.92,4.26-7,5.42l-3.41,1.9-1.33.67-4.76,2.01-5.77,1.89-5.73,1.35c-2.97.6-5.88,1.03-8.88,1.29l-3.06.27-1.77.08-1.73.08Z"/>
  </g>
</svg>