<svg fill="currentColor" xmlns="http://www.w3.org/2000/svg" viewBox="0 0 216 216">
  <g>
    <path d="M171.9,121.05c-.4-.15-.81-.46-.67-.96,1.22.39,2.32.38,3.54.17.36-.93.55-1.84.44-2.89.49-.23,1.32-.11,1.59.47.33.72.13,1.47-.13,2.36,1.39-.17,2.27.24,3.09,1.16l.94.35c1.25,1.59-1.2,4.64-.9,7.25,1.1-.76,1.59-1.87,2.28-2.83.91-1.27,1.25-2.63,1.33-4.24.02-.35.88-.33,1.14-.14.36.27.52.77.39,1.27l-1.09,4.19c-.15.58-.34,1.17.09,1.8,1.47-1.45,2.24-3.27,3.22-5.08l-.95-.5c-.9-1.27-.29-3.15,1.17-3.63.42-.14.83-.04,1.09.18.24.21.36.6.26,1l-.52,2.14c.63.13,1.64-.24,2.04.29.43.58-.04,1.58-.29,2.2-.84,2.12-1.62,4.11-2.12,6.3l.82.68c.1-1.33,1.18-1.95,2.34-1.82.69.07,1.14.52,1.37,1.04.25.57.27,1.21-.11,1.8-1.01,1.54-2.99,2.08-4.68,1.43-1.2-.46-1.38-1.84-1.7-2.8-1.5-.66-3.46-.55-5.05-.45-4.02.24-9.19,1.49-10.69,5.26-.07.17-.17.27-.27.3-.17.04-.35,0-.47-.19-1.28-2,.66-4.66,3.27-5.64,3.93-1.47,9.44-2,13.49-.36.42-2.37,1.31-4.39,2.08-6.58l.13-.38c.06-.18-.15-.33-.36-.31-.17.02-.29.07-.4.31-1.19,2.46-3.42,7.25-5.38,5.23-.4-.42-.21-1.1-.35-1.77-1.03,1.8-2.87,2.96-3.59,1.91-.44-.64-.14-1.42-.24-2.27-.65.93-1.12,1.82-2.05,2.42-.69.45-1.73.42-2.3-.15-.62-.61-.39-1.35-.58-2.34-.84,1.28-1.6,2.35-2.98,2.82-1.24.43-2.63-.05-2.91-1.34l-.35-1.66c-.98,1.41-1.91,3.13-3.25,2.75-.45-.13-.89-.58-.9-1.15l-.05-2.27c-1.95,2.2-5.04,4.69-7.3,2.9l-.84,4.11c-.21,1.05-.21,2.24-.14,3.35-1.54.57-1.93-1.95-1.49-4.22l1.92-9.89-.02-1.31c.45-.24,1.08-.15,1.37.29.31.47.24,1.01.33,1.67.99-1.67,2.76-3.1,4.12-2.21,1.47.97.98,4.02.17,6.19,1.87-1.32,2.9-3.21,3.12-5.41.41-.13.82-.01,1.1.19.38.27.4.74.26,1.23-.54,1.89-1.55,5.47-.69,5.62.55.1,2.35-3.07,3.02-4.63.89-2.05,2.63-3.75,4.01-3.06l.26-.17ZM179.12,121.63c-.7-.58-1.65-.61-2.55-.62l-1.48,6.22c-.11.47-.22,1.35.17,1.69,1.12.97,5.05-6.31,3.86-7.3ZM172.04,121.11l-.25.19c1.41.7,1.59,2.47,1.11,3.08-.08.09-.37.12-.45.01.1-.89.09-1.68-.36-1.83-1.24-.41-4.04,5.86-2.45,6.52s3.22-2.23,3.99-4.09l.98-3.78c-.96.07-1.73.21-2.57-.1ZM158.92,122.26c-1.35-.41-3.25,3.9-3.26,6.21.22.49.98.73,1.42.64,1.97-.4,3.05-6.48,1.84-6.85ZM187.88,133.05c0,.83.37,1.16.85,1.45,1.31.24,2.5-.8,2.48-2.13,0-.31-.21-.56-.4-.66s-.48-.11-.75,0c-1.57.68-.29,2.49-1.11,2.48-.23-.49-.46-1.01-1.07-1.14Z"/>
    <path d="M203.07,124.27c-1.65,3.34-3.17,6.96-7.21,5.97-.55-.14-.68-.66-.67-1.28-.82.64-1.53,1.2-2.59,1.25-.94.05-1.89-.52-2.13-1.53-.87-3.68,1.59-8.02,4.3-7.5.75.14,1.07.72,1.61,1.44-.18-1.58.18-2.88,1.6-3.17.41-.08.88.02,1.12.3.22.25.26.69.11,1.09l-.87,2.22c.95,1.43,1.82,2.83,2.25,4.43l1.89-3.23c.08-.06.33-.11.57.02ZM195.8,123.85c.22-.54-.3-1.53-.72-1.28-1.22.73-1.75,2.12-2.29,3.46,1.35-.2,2.49-.92,3.01-2.19ZM192.81,128.93c1.51,1.25,3.51-2.55,4.4-4.59-.26-.51-.36-.87-.74-1.25-.12,1.02-.44,1.73-1.12,2.25-.68.83-1.73.95-2.62,1.46-.42.37-.37,1.76.08,2.13ZM196.17,129.48c.46.4,1.35.16,1.75-.17,1.14-.93.68-2.89-.26-4.38l-2.23,3.66c.38.1.4.6.74.9Z"/>
  </g>
  <g>
    <g>
      <path d="M99.13,117.41c-5.88,2.62-13.68,2.12-18.9-1.83-3.71-2.8-5.72-6.93-5.81-11.57-.1-5.44,2.53-10.3,7.22-13.09,5.39-3.21,12.97-3.32,18.5-.39,5.38,2.85,8.3,8.33,7.86,14.42-.4,5.53-3.77,10.19-8.86,12.46ZM97.65,105.72c1-4.64-1.5-8.96-5.99-9.25-2.87-.19-5.5,1.42-6.54,4.2-.74,1.99-.75,4.17,0,6.15,1.08,2.84,3.77,4.43,6.72,4.18,2.81-.24,5.17-2.3,5.81-5.27Z"/>
      <g>
        <polygon points="71.24 118.32 65.1 118.37 61.18 118.3 61.19 107.61 52 107.61 52 118.33 41.92 118.35 41.92 89.11 52 89.13 52.01 99.45 61.17 99.45 61.19 89.11 71.24 89.11 71.24 118.32"/>
        <path d="M35.38,116.51c-5.43,3.56-13.77,2.88-19.87.91l-2.97-1.43,3.24-7.2c2.97,1.58,6.12,2.58,9.46,2.67,1.95.05,4.15-.11,4.23-1.52.09-1.56-2.85-1.84-4.89-2.36l-5.1-1.3c-2.15-.55-4.26-1.84-5.4-3.85-2.29-4.06-.77-9.14,3.1-11.59,4.75-3,11.36-2.82,16.75-1.51,1.49.42,2.86.88,4.21,1.67l-3.01,7.18c-3.44-1.7-7.8-2.9-11.3-1.67-.56.29-.9.79-.85,1.38.23,2.83,12.21,1.41,15.43,7.21,2.22,4.01.77,8.94-3.01,11.41Z"/>
      </g>
    </g>
    <g>
      <g>
        <path d="M195.19,118.35l-11.28-13.19-.04,13.18-6.05-.05c-.33-1-1.03-1.9-2.39-1.77-.23.02-.73-.08-.88.21-.3.57.51,1.83-.43,1.58v-29.2s8.26,0,8.26,0l11.24,13.2.04-13.19h9.78s0,29.24,0,29.24h-8.26Z"/>
        <path d="M162.15,117.37c-5.21,2.38-12.06,2.21-17.16-.59-4.63-2.55-7.44-7.13-7.65-12.39-.24-5.98,2.8-11.26,8.13-13.98,3.06-1.56,6.41-2.13,9.9-1.95,8.27.44,15.01,5.86,15.54,14.25.41,6.38-2.97,12.01-8.77,14.65ZM160.3,106.63c.69-1.97.64-3.98-.02-5.85-.92-2.62-3.28-4.26-5.91-4.33s-5.15,1.41-6.24,3.99c-.74,1.76-.83,3.63-.37,5.48.71,2.9,3.07,4.89,5.91,5.09s5.61-1.46,6.63-4.37Z"/>
      </g>
      <g>
        <path d="M117.23,97.43l-3.99.74.89-1.92-3.04.55c-.47.09-.55.76-.79,1.19l-1.13-5.29-1.68-3.16c.4-.13.73.13,1.15.42.17-.76-.08-1.08-.15-1.52l2.39-.56,3.11-1.5,6.85,4.17,2.83-1.45-6.67-4.18,3.16-1.57,7.07,4.28,1.71-.29-4.24,8.63,2.99-.46v22.85s-10.03,0-10.03,0v-21.04c.91-.24,2.08-.16,2.95-.65l1.82-3.32c-.87-.16-1.42.58-2.2.74-.32.07-.66.06-.81.25-.18.22-.1.58-.15.92-.2.12-.91-.04-1.08.29l-.97,1.9Z"/>
        <path d="M132.19,94.63l-3.9.68,4.44-8.68,3.3-.64c.04.16.16.52.05.76l-3.88,7.88Z"/>
        <polygon points="129.84 86.13 123.07 81.93 126.28 80.32 133.15 84.55 129.84 86.13"/>
        <path d="M135.78,83.19l-6.94-4.09c1.8-.83,4.13-.61,5.16,1.12l1.78,2.97Z"/>
        <polygon points="137.48 93.6 134.94 94.11 136.82 90.47 137.48 93.6"/>
      </g>
    </g>
  </g>
</svg>