<svg fill="currentColor" xmlns="http://www.w3.org/2000/svg" viewBox="0 0 216 216">
  <polygon points="122.8 126.09 122.71 104.07 118.81 126.04 114.28 126.07 110.38 104.05 110.33 126.07 103.55 126.07 103.54 90.03 113.63 90.02 116.6 107.08 119.54 90.01 129.63 90.03 129.63 126.04 122.8 126.09"/>
  <polygon points="77.52 90.06 69.63 114.23 69.64 126.08 61.78 126.08 61.74 114.23 53.83 90.05 61.17 90 65.68 105.93 70.16 90.02 77.52 90.06"/>
  <path d="M90.88,117.5h-5.46s-1.24,8.61-1.24,8.61h-7.33s6.41-36.04,6.41-36.04h9.8s6.42,35.98,6.42,35.98l-7.37.07-1.22-8.63ZM89.94,110.9l-1.81-12.16-1.79,12.23,3.6-.07Z"/>
  <polygon points="181.56 125.98 174.15 126.09 174.14 110.97 167.83 110.96 167.82 126.07 160.45 126.07 160.45 90.04 167.82 90.03 167.82 104.35 174.22 104.35 174.21 90.02 181.55 90.03 181.56 125.98"/>
  <path d="M199.71,117.49l-5.46-.03-1.23,8.62h-7.34s6.41-36.04,6.41-36.04l9.79-.02,6.43,36.05h-7.36s-1.24-8.58-1.24-8.58ZM198.78,110.91l-1.78-12.2-1.81,12.19h3.59Z"/>
  <path d="M147.73,117.48l-5.45-.02-1.25,8.61h-7.33s6.42-36.04,6.42-36.04h9.79s6.43,36.05,6.43,36.05h-7.38s-1.22-8.59-1.22-8.59ZM146.78,110.87l-1.77-12.21-1.84,12.27,3.61-.05Z"/>
  <path d="M50.34,108c0,11.77-9.55,21.32-21.33,21.32s-21.33-9.54-21.33-21.32,9.55-21.32,21.33-21.32,21.33,9.54,21.33,21.32ZM43.65,118.3l1.92.32c.31.05.98-.16,1.12-.44.11-.23.03-.91-.15-1.11l-1.28-1.47c2.47-5.52,2.27-11.7-1.08-17.12-2.79-4.5-7.83-7.86-13.63-8.33l-.56-1.78c-.12-.37-.82-.82-1.25-.71-.32.08-.66.64-.79,1.01l-.54,1.51c-5.83.45-10.84,3.86-13.62,8.37-3.31,5.37-3.53,11.55-1.01,17.06l-1.18,1.27c-.23.25-.42.92-.29,1.23.11.26.79.58,1.1.52l1.93-.35c3.43,4.85,8.85,7.62,14.65,7.63s11.19-2.73,14.66-7.61Z"/>
  <path d="M30.27,112.71c-.29-.33-.96-.85-1.29-.78s-.92.45-1.24.69v10.15s-2.06.03-2.06.03v-9.04s-1.37.8-1.37.8c-3.16,1.86-5.26-1.81-6.61,2.13-1.93.46-3.85.91-5.87,1.16l4.07-4.52c.75.21,1.62.23,2.08-.05,1.38-.83.12-3.75,4.45-5.22l-7.95-4.62,1.08-1.76,8.71,5.03c.49-.1,1.16-.36,1.34-.7.2-.37.03-1.34-.21-1.56l-8.66-4.99,1.11-1.75,7.88,4.54c-.77-4.54,2.33-4.83,2.36-6.51,0-.48-.44-1.2-.97-1.74.48-1.88,1.08-3.81,1.88-5.78.76,1.97,1.41,3.93,1.89,5.68-.73.75-1.5,2.15-.43,3.01,1.62,1.31,2.21,3,1.76,5.37l7.98-4.6,1.01,1.81-8.89,5.12c-.01.5-.02,1.17.11,1.47.15.34,1.04.7,1.38.56l8.67-4.97,1.03,1.78-7.91,4.57c2.09.86,3.35,1.98,3.64,4.03.2,1.37,1.68,1.73,2.89,1.31,1.42,1.46,2.68,2.84,4.05,4.55l-5.95-1.24c-.24-.67-.51-1.3-.82-1.6-1.29-1.24-3.59,1.66-7.06-1.42l-.05,9.12h-2.04s0-10.08,0-10.08ZM30.27,103.13v-2.89c0-.73-.66-1.28-1.31-1.26-.57.02-1.22.6-1.22,1.31v2.84c.02.4.85.91,1.24.93s1.29-.53,1.29-.93ZM28.93,106.68c-1.1.15-1.31.88-1.22,1.64.06.49.9,1.09,1.42,1,.78-.13,1.22-.72,1.22-1.48,0-.54-.81-1.25-1.42-1.16ZM23.11,112.88l2.3-1.37c.37-.22.38-1.35.11-1.67-.24-.28-.99-.69-1.34-.48l-2.45,1.39c-.7.39-.9,1.26-.41,1.93.36.48,1.13.6,1.8.21ZM35.49,113.14c.44.25,1.36-.41,1.46-.84.13-.6-.15-1.27-.69-1.58l-2.59-1.49c-.39.15-.96.41-1.2.62s-.18,1.02-.16,1.5l3.18,1.78Z"/>
</svg>